HIERARCHY
ROOT Hips
{
   OFFSET 0.00000 0.00000 0.00000
   CHANNELS 6 Xposition Yposition Zposition Zrotation Xrotation Yrotation
   JOINT Spine
   {
      OFFSET 0.000000 9.512400 0.000000
      CHANNELS 3 Zrotation Xrotation Yrotation
      JOINT Spine1
      {
         OFFSET -0.000000 20.525920 0.102128
         CHANNELS 3 Zrotation Xrotation Yrotation
         JOINT HEad
         {
            OFFSET 0.000000 6.987328 0.009072
            CHANNELS 3 Zrotation Xrotation Yrotation
            End Site
            {
               OFFSET -0.232000 10.219360 2.011160
            }
         }
         JOINT LeftShoulder1
         {
            OFFSET 7.192000 -0.289800 -0.176000
            CHANNELS 3 Zrotation Xrotation Yrotation
            JOINT LeftArm
            {
               OFFSET 8.226160 -0.002704 0.257696
               CHANNELS 3 Zrotation Xrotation Yrotation
               JOINT LeftForeArm
               {
                  OFFSET 26.213519 0.079312 -1.139472
                  CHANNELS 3 Zrotation Xrotation Yrotation
                  JOINT LeftHand
                  {
                     OFFSET 22.051441 0.068288 0.817728
                     CHANNELS 3 Zrotation Xrotation Yrotation
                     End Site
                     {
                        OFFSET 13.395442 -0.480000 1.202328
                     }
                  }
               }
            }
         }
         JOINT RightShoulder
         {
            OFFSET -7.192000 -0.289800 -0.176000
            CHANNELS 3 Zrotation Xrotation Yrotation
            JOINT RightArm
            {
               OFFSET -8.226160 -0.002704 0.257696
               CHANNELS 3 Zrotation Xrotation Yrotation
               JOINT RightForeArm
               {
                  OFFSET -26.317679 0.079312 -1.139472
                  CHANNELS 3 Zrotation Xrotation Yrotation
                  JOINT RightHand
                  {
                     OFFSET -21.993682 0.068288 0.817728
                     CHANNELS 3 Zrotation Xrotation Yrotation
                     End Site
                     {
                        OFFSET -13.304962 -0.480000 1.202328
                     }
                  }
               }
            }
         }
      }
   }
   JOINT LeftUpLeg
   {
      OFFSET 7.156640 -6.933656 0.081320
      CHANNELS 3 Zrotation Xrotation Yrotation
      JOINT LeftLeg
      {
         OFFSET 0.000000 -35.538158 1.098160
         CHANNELS 3 Zrotation Xrotation Yrotation
         JOINT LeftFoot
         {
            OFFSET -0.202840 -33.673920 -1.168472
            CHANNELS 3 Zrotation Xrotation Yrotation
            JOINT LeftToes
            {
               OFFSET -0.032000 -3.532072 6.799280
               CHANNELS 3 Zrotation Xrotation Yrotation
               End Site
               {
                  OFFSET 0.064000 -0.037960 7.823832
               }
            }
         }
      }
   }
   JOINT RightUpLeg
   {
      OFFSET -7.156640 -6.933656 0.081320
      CHANNELS 3 Zrotation Xrotation Yrotation
      JOINT RightLeg
      {
         OFFSET 0.000000 -35.538158 1.098160
         CHANNELS 3 Zrotation Xrotation Yrotation
         JOINT RightFoot
         {
            OFFSET 0.202840 -33.673920 -1.168472
            CHANNELS 3 Zrotation Xrotation Yrotation
            JOINT RightToes
            {
               OFFSET 0.032000 -3.532072 6.799280
               CHANNELS 3 Zrotation Xrotation Yrotation
               End Site
               {
                  OFFSET -0.064000 -0.109960 7.823832
               }
            }
         }
      }
   }
}
MOTION
Frames: 6
Frame Time: 0.016670
44.923138 83.973979 -117.672222 2.651790 -11.777600 -43.851300 -14.562197 13.625957 204.254034 4.180279 -17.762897 -161.192669 -30.701198 -0.850321 -8.978680 26.787691 80.414358 -22.360508 -16.605887 -99.825298 -54.082138 47.317177 3.307616 -28.556847 -92.686391 -73.935739 -149.143369 190.328030 319.012619 154.212967 100.258721 53.870887 326.421215 -94.380387 20.589364 118.553520 -68.030856 -71.380039 -32.101291 18.489365 -1.196593 -61.365404 -19.274920 -8.012493 50.276418 -33.688388 17.457894 55.752901 -24.593279 -3.556953 -9.718664 -29.109778 16.264369 3.414428 1.139609 0.348141 9.035919 -23.203664 32.354705 15.547613 0.689891 5.426279 2.903752
44.274496 82.346934 -117.859362 3.783695 -11.853062 -40.389255 -18.590971 15.650733 202.895182 5.017567 -20.664324 -161.157248 -30.779930 -1.041846 -8.400654 26.698065 77.492847 -21.865027 -19.586138 -100.593100 -53.644473 43.380560 -0.757666 -24.657591 -95.659238 -68.883564 -150.250665 188.965175 321.978478 156.701588 101.833087 50.369339 324.825082 -103.286578 17.303716 119.521740 -71.900438 -67.766589 -32.009654 16.829547 -4.982555 -61.109983 -21.014708 -3.927503 48.935901 -31.585008 18.390486 55.085196 -29.049590 -4.315491 -11.746984 -27.805958 13.547589 1.495556 -0.875591 8.526479 6.804955 -22.392773 30.838294 14.555587 0.764409 0.800773 2.226542
43.429055 80.398806 -118.317679 3.760075 -11.229847 -35.938451 -22.698638 18.273392 200.628242 8.522434 -19.603558 -162.187363 -29.136675 0.810552 -7.519197 26.211524 70.688066 -17.759812 -22.962410 -102.931313 -55.092528 41.337862 -1.925517 -25.325303 -100.116565 -64.942518 -147.291062 193.596835 323.992209 157.499231 98.969530 47.104246 324.424451 -108.604290 12.537279 128.785594 -71.774558 -66.170640 -29.800426 16.669138 -8.461491 -58.284852 -22.581025 0.560602 45.968310 -29.645176 19.280410 54.409891 -33.582565 -5.830788 -14.046159 -25.081373 9.331098 1.523504 -1.960306 19.274536 5.939482 -21.025303 26.360509 12.961316 -1.751803 9.570408 -6.485788
42.379112 78.242277 -118.915032 4.403995 -10.241865 -32.379014 -26.850799 21.191739 199.500728 10.764704 -18.184928 -163.297023 -28.580285 1.958928 -5.760836 25.930716 63.324501 -18.068019 -24.889226 -100.688258 -56.006035 42.140744 -0.148980 -31.153787 -93.995158 -77.002617 -137.678623 198.522986 324.121218 157.154853 97.040138 42.689140 326.022141 -112.501432 8.418989 134.084741 -73.854187 -63.219152 -26.188866 17.133617 -13.339525 -52.567380 -24.999763 6.433224 40.545929 -28.000285 20.284864 53.505171 -38.096248 -7.953533 -16.806015 -22.919012 4.165318 0.571602 -2.938918 31.467720 5.460831 -19.725270 23.233817 10.059132 -0.026476 -4.642382 -5.558302
41.182093 75.732511 -119.721974 6.030160 -9.611261 -29.028014 -29.075647 24.479263 199.835216 11.240275 -21.127867 -162.424098 -27.872773 0.373694 -4.422204 17.436317 59.802404 -14.723625 -26.822124 -92.715638 -68.712010 41.945927 -5.488851 -32.968476 -101.457249 -60.662824 -150.166545 200.731009 327.031343 163.028255 95.557809 43.170200 329.703258 -115.061831 9.646614 139.779739 -70.406758 -72.027883 -35.686905 17.413789 -19.046561 -43.622878 -27.519227 14.243940 31.735900 -26.821605 22.246590 52.560853 -42.400353 -10.216278 -19.825102 -21.683786 -3.369602 -0.724464 -5.046654 45.136414 9.697444 -16.684448 21.401226 7.791576 -5.078964 7.618861 -5.595369
39.932427 73.196138 -120.613773 7.979758 -7.498903 -26.168997 -36.869040 29.407782 198.653757 9.798328 -19.590979 -164.910013 -26.389264 -1.887685 -3.589915 15.372478 50.240170 -16.220820 -28.063084 -92.159961 -68.202786 40.844982 -5.995955 -37.815390 -92.274585 -75.402932 -136.244188 205.693401 325.909989 160.619043 93.485107 38.738825 331.958942 -107.288639 7.639612 141.077926 -69.572191 -54.604265 -22.442198 18.388681 -25.516953 -31.899063 -26.515732 23.751091 18.641485 -26.101812 24.118820 51.844937 -46.649915 -12.974983 -23.113324 -19.785151 -12.745638 -3.222435 -19.238464 58.982939 28.820352 -12.099549 20.392418 5.729594 -7.185246 -3.171095 -13.890064
